<?xml version="1.0" encoding="utf-8"?>
<!-- Generator: Adobe Illustrator 16.0.4, SVG Export Plug-In . SVG Version: 6.00 Build 0)  -->
<!DOCTYPE svg PUBLIC "-//W3C//DTD SVG 1.1//EN" "http://www.w3.org/Graphics/SVG/1.1/DTD/svg11.dtd">
<svg version="1.1" id="Layer_1" xmlns="http://www.w3.org/2000/svg" xmlns:xlink="http://www.w3.org/1999/xlink" x="0px" y="0px"
	 width="14.592px" height="16px" viewBox="0.506 0.5 14.592 16" enable-background="new 0.506 0.5 14.592 16" xml:space="preserve">
<path fill="#47502A" d="M15.045,13.942c-0.008-0.292-0.015-0.587-0.019-0.879c-0.012-0.043-0.027-0.083-0.046-0.123
	c-0.014-0.721-0.044-1.444-0.089-2.162c-0.151-0.881-0.345-2.44-0.044-3.232l0.013-0.029c-0.029-0.59-0.024-1.229-0.151-1.805
	c0.013-0.137,0.039-0.27,0.083-0.399l0.005-0.136c0.105-0.539,0.031-1.553-0.231-2.042c-0.047-0.09-0.528-0.345-0.651-0.393
	c-0.038-0.006-0.078-0.014-0.088-0.016c-0.01-0.011-0.024-0.025-0.046-0.039c-0.056-0.035-0.222-0.075-0.251-0.08
	c-0.105,0.035-0.212,0.048-0.322,0.041c-0.004-0.047-0.012-0.092-0.026-0.137c0.014-0.015,0.032-0.037,0.043-0.068
	c-0.011-0.07-0.008-0.14,0.004-0.208c0.024-0.018,0.062-0.044,0.086-0.092l0.048-0.116c-0.048-0.03-0.096-0.06-0.144-0.087
	C13.192,1.84,13.15,1.75,13.094,1.669l-0.045-0.011c-0.19-0.046-0.375,0.013-0.469,0.149c-0.01,0.015-0.018,0.027-0.023,0.049
	c-0.079,0.044-0.308,0.167-0.379,0.167c-0.035-0.03-0.073-0.056-0.115-0.078l-0.134-0.006c-0.076-0.02-0.201-0.06-0.214-0.064
	c-0.04-0.063-0.076-0.128-0.11-0.195l-0.039-0.037c-0.01-0.031-0.025-0.059-0.047-0.083c-0.118-0.097-0.51-0.124-0.666-0.15
	c-0.062-0.015-0.49,0.025-0.594,0.069c-0.041,0.023-0.085,0.044-0.127,0.067c-0.081,0.007-0.16,0.018-0.24,0.031
	C9.738,1.631,9.492,1.706,9.355,1.78C9.258,1.834,9.112,1.94,9.034,2.033c-0.03,0.015-0.06,0.03-0.087,0.047
	C8.9,2.127,8.856,2.177,8.816,2.229C8.703,2.303,8.489,2.375,8.357,2.421C7.376,2.743,6.28,2.27,5.303,2.505
	C5.284,2.51,5.261,2.519,5.238,2.526c-0.01,0.005-0.033,0.006-0.01,0.008L5.084,2.546C5.041,2.563,4.999,2.583,4.959,2.604
	C4.901,2.611,4.843,2.617,4.784,2.623C4.696,2.646,4.534,2.587,4.442,2.58c-0.087,0.078-0.231,0.253-0.35,0.304
	C4.072,2.891,4.044,2.898,4.018,2.915C3.355,3.32,3.298,4.297,3.504,4.993c-0.01,0.061-0.007,0.121,0.007,0.179
	c0.02,0.061,0.082,0.147,0.147,0.183l0.057-0.1h0.007l0.012,0.114c0.053-0.006,0.117,0.006,0.157,0.024
	c0.013,0.013,0.03,0.031,0.062,0.046c0.313,0.136,1.165,0.072,1.531,0.044C5.516,5.476,5.546,5.463,5.57,5.448
	c0.047,0,0.094-0.01,0.137-0.027C6.163,5.183,6.483,4.722,6.59,4.23c0.045-0.036,0.087-0.074,0.126-0.117
	c0.089-0.133,0.098-0.344-0.002-0.48c0.27-0.038,0.486-0.16,0.73-0.25l0.038,0.007c0.017-0.003,0.102-0.038,0.112-0.027
	c0.128,0.027,0.294,0.053,0.43,0.023c0.089-0.019,0.18-0.038,0.271-0.056c0.082,0.008,0.165,0.011,0.247,0.007
	c0.054-0.019,0.108-0.032,0.164-0.04C8.739,3.316,8.775,3.333,8.81,3.346C8.706,3.32,9.284,3.335,9.304,3.33
	C9.4,3.296,9.497,3.263,9.592,3.23C9.606,3.231,9.643,3.25,9.646,3.251c0.008,0.017,0.02,0.055,0.064,0.087
	C9.713,3.339,9.714,3.34,9.716,3.341C9.591,3.388,9.492,3.498,9.369,3.538C9.246,3.582,9.12,3.614,8.99,3.634
	C8.911,3.676,8.872,3.766,8.88,3.875C8.886,3.977,8.94,4.096,9.023,4.123c0.111,0.074,0.3,0.012,0.356-0.02
	C9.48,4.055,9.563,3.937,9.657,3.897c0.028-0.018,0.229-0.042,0.214-0.089c0.014-0.006,0.048-0.017,0.076-0.023
	c0.037,0.004,0.073,0.002,0.109-0.006c0.028-0.009,0.048-0.025,0.068-0.044c0.011,0.13,0.001,0.608-0.063,0.755
	c-0.175,0.453-0.73,0.879-1.115,1.094C8.909,5.606,8.888,5.64,8.869,5.678L8.808,5.683C8.758,5.697,8.563,5.781,8.508,5.862
	C8.456,5.959,8.365,6.175,8.397,6.23c0.05,0.047,0.097,0.097,0.14,0.15C8.683,6.393,8.829,6.37,8.969,6.312
	C9.006,6.29,9.072,6.24,9.206,6.06c0.013-0.005,0.033-0.014,0.057-0.03C9.3,6.003,9.318,5.969,9.339,5.933
	c0.058-0.037,0.118-0.071,0.18-0.103c0.078-0.059,0.138-0.148,0.217-0.211c0.136-0.091,0.212-0.262,0.353-0.357
	c0.022-0.018,0.042-0.039,0.057-0.062c0.013,0.046,0.006,0.113-0.002,0.157c0.047,0.272,0.061,0.549,0.038,0.829
	c-0.007,0.019-0.018,0.035-0.031,0.049c-0.055,0.018-0.137,0.047-0.177,0.078c-0.05,0.04-0.068,0.094-0.08,0.133
	C9.887,6.458,9.887,6.47,9.887,6.468C9.81,6.525,9.737,6.563,9.664,6.589C9.619,6.592,9.576,6.6,9.535,6.616
	C9.489,6.636,9.462,6.669,9.438,6.696C9.383,6.758,9.369,6.694,9.244,6.712l-0.03-0.02H9.177C9.092,6.694,9.041,6.735,8.998,6.766
	c0.025,0.005-0.889-0.059-1.109-0.024c-0.028,0.005-0.052,0.02-0.072,0.035c-0.063-0.006-0.128-0.006-0.192,0
	c-0.05,0.025-0.094,0.059-0.132,0.1L7.481,6.917c-0.005,0.021-0.019,0.061,0,0.105c0.027,0.082,0.129,0.181,0.163,0.19
	c0.125,0.081,0.242-0.012,0.299-0.058c0.012-0.01,0.023-0.021,0.035-0.025C8.037,7.138,8.097,7.145,8.156,7.15
	c0.113-0.013,0.259,0,0.369-0.037l0.038,0.011c0.108,0.024,0.659,0.151,0.659,0.151C9.323,7.243,9.422,7.208,9.52,7.172
	c0.139-0.014,0.208,0.005,0.3-0.109c0.084-0.029,0.448-0.171,0.486-0.154c0.014,0.017,0.026,0.034,0.038,0.053
	c-0.027,0.094-0.066,0.18-0.121,0.26l-0.004,0.065c-0.001,0.01-0.016,0.032-0.025,0.049c-0.34,0.063-0.689,0.121-1.021,0.209
	c-0.184-0.04-0.368-0.072-0.554-0.096C8.592,7.446,8.541,7.447,8.498,7.48C8.416,7.535,8.395,7.604,8.395,7.666
	c-0.147-0.037-0.363-0.113-0.512-0.07c-0.073,0-0.121,0.026-0.151,0.085C7.689,7.685,7.648,7.693,7.606,7.705
	C7.533,7.73,7.448,7.814,7.399,7.88L7.392,7.928c-0.005,0.039-0.014,0.104,0.03,0.173c-0.061,0.022-0.136,0.046-0.188,0.06
	C7.21,8.172,7.111,8.134,7.084,8.125C6.974,8.14,6.755,8.138,6.663,8.074C6.624,8.047,6.497,7.908,6.477,7.87
	C6.439,7.786,6.383,7.713,6.31,7.652C6.209,7.59,6.009,7.572,5.895,7.506l-0.052,0.01c-0.002,0-0.007,0-0.009-0.001
	c0.01-0.028,0.015-0.063,0.002-0.105C5.823,7.364,5.582,7.176,5.502,7.146C5.361,7.087,5.171,7.115,5.053,7.174L5.036,7.187
	L4.984,7.182C4.878,7.219,4.741,7.236,4.636,7.279C4.52,7.329,4.493,7.403,4.475,7.458C4.47,7.472,4.466,7.485,4.459,7.5
	c-0.037,0.04-0.073,0.08-0.111,0.121L4.341,7.706c-0.014,0.045-0.039,0.1-0.058,0.132c-0.086,0.135-0.334,0.534-0.488,0.63
	C3.769,8.472,3.731,8.477,3.695,8.502c-0.031,0.023-0.28,0.25-0.311,0.29C3.366,8.795,3.353,8.795,3.339,8.796
	c-0.085,0.005-0.23,0.118-0.302,0.193C3.01,9.048,2.983,9.107,2.959,9.166C2.84,9.22,2.721,9.273,2.602,9.326
	c-0.07,0.049-0.116,0.178-0.124,0.251C2.47,9.639,2.479,9.689,2.505,9.73c0.049,0.104,0.164,0.127,0.242,0.143l0.04,0.008
	c0.109,0.025,0.4-0.099,0.46-0.182C3.274,9.658,3.278,9.618,3.28,9.58c0.013-0.02,0.082-0.084,0.103-0.098
	c0.076-0.007,0.151-0.021,0.226-0.043c0.084-0.103,0.158-0.212,0.221-0.328c0.275-0.283,0.571-0.599,0.803-0.92
	c0.044-0.03,0.085-0.064,0.122-0.105l0.012-0.123c0.019-0.038,0.097-0.049,0.127-0.069c0.017-0.01,0.034-0.025,0.056-0.052
	c0.033-0.009,0.226-0.047,0.238-0.051C5.22,7.802,5.252,7.812,5.285,7.822C5.331,7.833,5.37,7.828,5.413,7.821
	c0.005,0.025,0.015,0.059,0.041,0.096c0.057,0.072,0.267,0.191,0.357,0.261C5.917,8.25,5.979,8.313,6.114,8.355
	c0.082,0.042,0.165,0.083,0.249,0.121C6.539,8.535,6.864,8.698,7.028,8.68c0.139-0.055,0.274-0.117,0.409-0.184
	c0.035,0.023,0.071,0.046,0.106,0.068c0.191,0.103,0.376,0.121,0.554,0.054C7.991,8.723,7.88,8.578,7.868,8.926L7.867,8.977
	c0.083,0.082,0.167,0.164,0.249,0.247l0.053-0.005c0.103-0.012,0.145-0.078,0.176-0.124C8.37,9.092,8.409,9.09,8.44,9.07
	C8.548,9.016,8.666,8.805,8.784,8.72C8.813,8.692,8.84,8.66,8.862,8.626c0.018-0.002,0.049-0.01,0.076-0.033
	c0.077-0.055,0.141-0.167,0.216-0.23c0.043,0.038,0.09,0.067,0.143,0.089c0.079,0.012,0.157,0.019,0.235,0.021
	c0.136,0.115,0.054,0.316,0.281,0.371c0.078,0.082,0.165,0.155,0.26,0.219c0.041,0.012,0.083,0.018,0.126,0.02
	c0.138,0.053,0.228,0.119,0.27,0.186c0.007,0.042,0.02,0.078,0.041,0.114c0.023,0.048,0.023,0.048,0.003,0.116
	c-0.005,0.015-0.01,0.026-0.012,0.041l-0.048,0.03l0.005,0.067c0.005,0.058,0.026,0.091,0.038,0.104c0,0.002-0.05,0.233-0.054,0.233
	c-0.029,0.035-0.122,0.22-0.173,0.253c-0.06,0.03-0.132,0.032-0.194,0.066c-0.081,0.038-0.086,0.034-0.105,0.011l-0.042-0.045
	c-0.076,0.007-0.143,0.038-0.213,0.072c-0.088,0.003-0.395,0.131-0.447,0.103c-0.016-0.016-0.035-0.032-0.09-0.055l-0.059-0.011
	c-0.031-0.018-0.061-0.036-0.092-0.057c-0.054-0.027-0.353-0.115-0.359-0.112c-0.079,0.018-0.159,0.035-0.24,0.056l-0.079-0.007
	c-0.135,0.049-0.309,0.078-0.44,0.139C7.8,10.44,7.713,10.474,7.604,10.519c-0.013,0.008-0.029,0.017-0.044,0.024
	c-0.01,0.007-0.021,0.015-0.019,0.018c-0.004-0.001-0.015-0.01-0.022-0.016c-0.04-0.032-0.109-0.088-0.217-0.064
	c-0.118,0.049-0.229,0.11-0.331,0.188c-0.21,0.001-0.373,0.054-0.569,0.111c-0.089-0.005-0.193,0.009-0.276,0.04
	c-0.187,0.084-0.354,0.215-0.544,0.293c-0.628,0.236-1.331,0.228-1.98,0.348l-0.033-0.016c-0.079,0-0.158-0.007-0.235-0.022
	c-0.275,0.045-0.955,0.226-1.152,0.391c-0.069,0.061-0.123,0.281-0.123,0.281C2.049,12.13,2.052,12.163,2.06,12.19
	c-0.173,0.04-0.32,0.134-0.489,0.174c-0.119,0.014-0.236,0.033-0.353,0.059c-0.037-0.722-0.036-1.451-0.035-2.175
	C1.114,8.879,1.48,7.1,1.156,5.761C1.092,5.452,1.172,4.725,1.273,4.426c0.015-0.023,0.024-0.048,0.03-0.075
	C1.299,4.163,1.405,3.825,1.352,3.662C1.328,3.631,1.311,3.597,1.301,3.56c0.024-0.118,0.074-0.216,0.085-0.339
	c0.01-0.014,0.023-0.029,0.03-0.05c0.043-0.216,0.033-0.448,0.076-0.661c0.018-0.016,0.042-0.04,0.052-0.074
	c0.014-0.048,0-0.087-0.017-0.1C1.564,2.211,1.671,2.16,1.745,2.062c0.022-0.027,0.03-0.054,0.036-0.076
	c0.023-0.033,0.167-0.147,0.245-0.199C2.068,1.775,2.108,1.758,2.147,1.74c0.022-0.015,0.039-0.033,0.065-0.062l0.075-0.02
	c0.079-0.05,0.16-0.099,0.242-0.146c0.11-0.024,0.219-0.051,0.328-0.08c0.046-0.024,0.091-0.05,0.137-0.077
	c0.488-0.182,1.136-0.11,1.628,0c0.166,0.002,0.674,0.092,0.833,0.013l0.042-0.032c0.063,0.003,0.125-0.004,0.186-0.023
	C5.787,1.324,5.897,1.33,6.005,1.331c1.329-0.057,2.653-0.106,3.979-0.149c0.077-0.019,0.259-0.066,0.309-0.053
	c0.839,0.203,1.874,0.137,2.729,0.156c0.108,0.035,0.188,0.069,0.308,0.072c0.062,0.079,0.127,0.158,0.189,0.236l0.014-0.126
	c0.058,0.032,0.112,0.068,0.164,0.109c0.007,0.012,0.014,0.025,0.027,0.044c0.015,0.019,0.031,0.032,0.045,0.04l0.01,0.038
	c0.008,0.024,0.022,0.044,0.032,0.051c-0.002,0.056-0.001,0.112,0.003,0.168c0.01,0.039,0.025,0.068,0.046,0.093l0.03,0.185
	c0.02,0.05,0.053,0.079,0.087,0.109l0.02,0.049l0.057,0.016l0.03,0.024c0.074,0.013,0.147,0.008,0.219-0.013
	c0.022-0.047,0.051-0.089,0.087-0.126c0.055-0.051,0.163-0.158,0.113-0.312c-0.02-0.058-0.067-0.098-0.134-0.137L14.35,1.601
	c-0.01-0.035-0.028-0.06-0.044-0.079c-0.012-0.05-0.026-0.099-0.041-0.147l-0.05-0.047c-0.043-0.077-0.095-0.148-0.159-0.212
	c-0.001-0.001-0.128-0.095-0.197-0.119C13.742,0.956,13.65,0.92,13.54,0.871c-0.066-0.017-0.134-0.028-0.203-0.035
	c-0.14-0.047-0.268-0.103-0.418-0.118c-0.865,0.009-1.744-0.002-2.613-0.031c-0.171,0.04-0.264-0.004-0.41-0.04
	C8.516,0.192,6.17,0.952,4.655,0.792C4.281,0.746,3.844,0.774,3.463,0.789c-0.013,0.004-0.024,0.01-0.04,0.02L3.355,0.796
	L3.324,0.81c-0.224,0.112-0.562,0.123-0.808,0.2c-0.031,0.009-0.056,0.024-0.09,0.047L2.357,1.068
	C2.276,1.113,2.201,1.167,2.132,1.227L2.08,1.238C1.99,1.284,1.866,1.334,1.784,1.391C1.726,1.434,1.6,1.541,1.554,1.598
	L1.523,1.645C1.465,1.663,1.408,1.683,1.352,1.707c-0.03,0.05-0.067,0.093-0.111,0.13l0.007,0.027
	C1.192,1.976,1.137,2.088,1.086,2.202L1.08,2.249C1.066,2.263,1.047,2.281,1.035,2.307L1.024,2.404
	C1.015,2.417,1.006,2.435,0.998,2.459c-0.074,0.273-0.1,0.57-0.163,0.847c0,0.104-0.015,0.211-0.042,0.313
	c0.02,0.333,0.01,0.666-0.03,0.997c-0.08,1.053-0.113,2.111-0.1,3.17c-0.354,1.448-0.017,3.616,0.058,5.137
	c0.041,0.688,0.019,1.564,0.152,2.229c0.01,0.05,0.094,0.355,0.134,0.446c0.018,0.031,0.037,0.06,0.059,0.087l0.021,0.069
	c0.073,0.049,0.135,0.109,0.187,0.181c0.05,0.02,0.1,0.04,0.15,0.06c0.048,0.041,0.1,0.076,0.153,0.109
	c0.06,0.021,0.121,0.041,0.182,0.059c0.116,0.078,0.229,0.149,0.36,0.207c0.172-0.002,0.348,0.014,0.519,0.047l0.169-0.009
	c0.098,0.024,0.194,0.04,0.295,0.04c0.036,0.014,0.284,0.114,0.299-0.011c0.234,0,0.469,0.009,0.702,0.029
	c0.649,0.022,1.298,0.007,1.943-0.047c0.664-0.024,1.519,0.129,2.168-0.005c0.021-0.002,0.039-0.011,0.05-0.02
	c0.256,0.009,0.513,0.06,0.77,0.078c0.071,0,0.143-0.007,0.213-0.019l0.193,0.043c0.37-0.05,0.775-0.105,1.142-0.031
	c0.562,0.069,1.131-0.071,1.687-0.092l0.018,0.005c0.353-0.019,0.704-0.036,1.057-0.054c0.118-0.029,0.376-0.163,0.452-0.217
	c0.014-0.014,0.024-0.026,0.037-0.042c0.122-0.045,0.234-0.099,0.359-0.141c0.136-0.069,0.462-0.347,0.542-0.475l0.023-0.104
	c0.035-0.04,0.067-0.082,0.099-0.125c0.043-0.082,0.188-0.306,0.213-0.381C15.108,14.55,15.114,14.23,15.045,13.942z M14.575,14.418
	c-0.002,0.154-0.001,0.342-0.045,0.487l-0.031,0.018l-0.019,0.024c-0.027,0.038-0.031,0.076-0.027,0.083
	c-0.018,0.009-0.043,0.02-0.063,0.037c-0.04,0.034-0.057,0.074-0.075,0.123c-0.037,0.022-0.074,0.049-0.11,0.078
	c-0.013,0.014-0.021,0.027-0.026,0.043c-0.041,0.021-0.077,0.056-0.104,0.096c-0.069,0.036-0.136,0.049-0.192,0.109l0.007-0.04
	c0.011-0.074-0.017-0.203-0.021-0.284c-0.01-0.028-0.023-0.053-0.04-0.078l0.045-0.028v-0.208c-0.078-0.082-0.163-0.16-0.255-0.229
	c-0.008-0.056-0.025-0.09-0.062-0.134l-0.034-0.045c-0.329-0.031-0.655,0.024-0.978,0.024c-0.099-0.038-0.21-0.203-0.303-0.264
	c0.029-0.145,0.045-0.292,0.047-0.439c-0.044-0.078-0.099-0.143-0.162-0.199H12c-0.161,0.092-0.163,0.154-0.26,0.281
	c-0.042,0.025-0.076,0.057-0.104,0.094c-0.026,0.043-0.031,0.085-0.035,0.135c-0.007,0.02-0.047,0.066-0.061,0.075
	c-0.087,0.003-0.173,0.014-0.258,0.036c-0.064,0.029-0.095,0.078-0.108,0.125c-0.001,0.002-0.003,0.002-0.006,0.002
	c-0.049,0.009-0.183-0.02-0.216-0.04c-0.001-0.002-0.004-0.005-0.005-0.009c0.069-0.864,0.406-1.949,0.241-2.817
	c-0.014-0.071-0.037-0.143-0.072-0.208c0.148,0.025,0.307,0.029,0.457,0.016c0.051-0.024,0.102-0.047,0.154-0.068
	c0.083,0.013,0.165,0.026,0.249,0.037l0.05,0.031c0.063,0.022,0.379,0.059,0.469,0.043c0.088-0.022,0.175-0.047,0.262-0.071
	c0.045,0.004,0.089,0.009,0.134,0.009c0.158-0.033,0.35-0.005,0.499-0.049c0.175-0.052,0.407-0.052,0.567-0.116
	c0.074-0.034,0.322-0.361,0.337-0.412c0.008-0.03-0.083-0.275-0.103-0.345c-0.101-0.001-0.314-0.024-0.39,0.002
	c-0.035,0.021-0.068,0.041-0.101,0.064c-0.017,0.001-0.048,0.005-0.082,0.024L13.6,10.451l-0.249,0.011
	c-0.02-0.009-0.288-0.16-0.312-0.167L12.9,10.289c-0.014-0.015-0.031-0.031-0.055-0.043l-0.035-0.012
	c-0.02-0.032-0.043-0.071-0.076-0.097c-0.087-0.066-0.405-0.249-0.492-0.276l-0.227-0.035C12,9.809,11.978,9.786,11.951,9.768
	c-0.111-0.055-0.223-0.106-0.334-0.158C11.6,9.587,11.58,9.567,11.556,9.552c-0.019-0.012-0.034-0.016-0.051-0.02l-0.036-0.043
	c-0.05-0.029-0.101-0.06-0.151-0.09c-0.037-0.042-0.036-0.114-0.073-0.16c0.066,0.051,0.319,0.09,0.405,0.032
	c0.055-0.035,0.068-0.088,0.079-0.13c0.048,0.035,0.114,0.078,0.176,0.078c0.013,0.017,0.036,0.046,0.074,0.063
	c0.042,0,0.147,0.006,0.191,0.03c0.016,0.013,0.034,0.03,0.064,0.042c0.072,0.02,0.143,0.047,0.21,0.079
	c0.046,0.05,0.104,0.077,0.173,0.077l0.028,0.016h0.03c0.099,0.004,0.148-0.01,0.208-0.055l0.062-0.044l0.011-0.042
	c0.036-0.151,0.007-0.399-0.147-0.445c-0.108-0.06-0.303-0.062-0.426-0.07c-0.011-0.011-0.027-0.025-0.051-0.037
	c-0.054-0.021-0.108-0.042-0.163-0.064c-0.021-0.023-0.04-0.047-0.059-0.07l-0.141-0.081c-0.008-0.075-0.03-0.146-0.064-0.214
	c-0.005-0.003-0.006-0.006-0.009-0.008c0.291,0,0.576,0.038,0.867,0.021c0.049-0.058,0.103-0.113,0.16-0.163l0.004-0.039L12.942,8.2
	l-0.003-0.036c-0.057-0.078-0.112-0.156-0.165-0.237c-0.039-0.011-0.078-0.02-0.118-0.027l0.04-0.063l-0.001-0.035
	c-0.017-0.094-0.05-0.182-0.102-0.262l-0.05-0.013c-0.318,0.027-0.629,0.088-0.932,0.183c-0.182-0.055-0.296-0.213-0.46-0.27
	c0.008-0.046,0.019-0.104-0.001-0.159c-0.004-0.017-0.165-0.241-0.19-0.279c-0.008-0.011-0.017-0.021-0.027-0.028
	c-0.009-0.146,0.008-0.493,0.062-0.64c0.021-0.027,0.035-0.057,0.042-0.089l-0.005-0.116c0.005-0.017,0.01-0.035,0.02-0.052
	c0.004,0.003,0.01,0.007,0.016,0.011l0.158,0.049c0.054,0.035,0.108,0.067,0.164,0.097c0.096,0.052,0.195,0.077,0.298,0.077v0.001
	c0.151-0.018,0.135-0.102,0.264-0.03c0.104,0.034,0.211,0.05,0.318,0.047c0.059-0.058,0.118-0.115,0.178-0.17l0.02,0.014l0.04-0.002
	c0.123-0.008,0.256-0.199,0.313-0.32L12.82,5.813c-0.008-0.162-0.13-0.252-0.22-0.316c-0.043-0.028-0.079-0.061-0.111-0.1
	c-0.152,0.02-0.303,0.068-0.438,0.141c-0.005,0.02-0.04,0.137-0.025,0.155c-0.101,0.006-0.202,0.006-0.303,0.001
	c-0.025-0.013-0.053-0.024-0.08-0.034L11.54,5.668c-0.044-0.035-0.185-0.12-0.204-0.155c-0.047-0.077-0.104-0.127-0.18-0.167
	c0.014-0.069,0.009-0.138-0.014-0.209c-0.039-0.107-0.055-0.317-0.107-0.399c0.045,0.005,0.09,0.011,0.133,0.019l0.044,0.02
	c0.11,0.051,0.233,0.107,0.414-0.013l0.048-0.032c0.015-0.106,0.005-0.211-0.026-0.316c-0.062-0.124-0.188-0.11-0.253-0.104
	c-0.032,0.004-0.061,0.006-0.088,0c-0.043-0.012-0.1-0.04-0.125-0.056l-0.015-0.073c-0.022-0.05-0.07-0.076-0.121-0.095
	c-0.014-0.052-0.022-0.123-0.02-0.147c0.027-0.071,0.044-0.145,0.05-0.221c-0.013-0.103-0.044-0.316-0.081-0.398
	c-0.03-0.057-0.066-0.109-0.11-0.155c0.007,0,0.015-0.001,0.021-0.002c0.01,0.013,0.024,0.028,0.043,0.042
	C11,3.244,11.063,3.259,11.124,3.273c0.005,0.001,0.27,0.02,0.28,0.018c0.329-0.066,0.398,0.006,0.734,0.041
	c0.081-0.008,0.157-0.027,0.23-0.059c0.045-0.018,0.144,0.018,0.193,0.021c0.065-0.075,0.144-0.137,0.233-0.185
	c0.287-0.119,0.7,0.048,0.981,0.055c0.014,0.007,0.059,0.04,0.063,0.05l0.016,0.033l0.026,0.02c0.063,0.042,0.123,0.026,0.133,0.014
	c0.033,0.015,0.141,0.107,0.163,0.138c0.1,0.145,0.087,0.395,0.154,0.561c0.012,0.167,0.03,0.333,0.052,0.5
	c0.075,0.25,0.033,0.481-0.104,0.578l-0.052,0.034c-0.013,0.145-0.019,0.289-0.018,0.434c0.104,0.229,0.009,0.366,0.053,0.589
	c0.03,0.124,0.059,0.247,0.087,0.371c0.089,0.331,0.148,1.417,0.023,1.686c-0.013,0.015-0.031,0.039-0.039,0.065
	c-0.075,0.241,0.008,0.644,0.056,0.885l-0.007,0.041c0.069,0.73-0.007,1.462,0.026,2.187c0,0.144-0.004,0.328,0.017,0.469
	c0.048,0.507,0.082,1.012,0.107,1.517C14.587,13.65,14.653,14.15,14.575,14.418z M13.496,15.728
	c-0.019,0.012-0.039,0.027-0.053,0.036l-0.044,0.004l-0.047,0.021l-0.071-0.007c-0.05,0.018-0.096,0.047-0.145,0.067
	c-0.092-0.005-0.183,0.011-0.269,0.047c-0.04-0.007-0.079-0.007-0.119-0.007c-0.131,0.038-0.242-0.024-0.366,0.002
	c-0.017,0.002-0.029,0.007-0.039,0.014l-0.149,0.004c-0.074,0.024-0.147,0.045-0.224,0.056l-0.027-0.009
	c-0.766-0.21-2.745-0.106-3.472-0.002c-0.018-0.014-0.04-0.026-0.09-0.04l-0.087-0.009c-0.018-0.009-0.035-0.022-0.061-0.029
	c-0.056-0.016-0.099,0.007-0.126,0.022c-0.367,0-0.74,0.011-1.106-0.009c-0.518,0.069-1.05,0.078-1.571,0.033
	c-0.195,0-0.359,0.049-0.545,0.094c-0.25,0.064-0.558-0.054-0.805,0.007c-0.177-0.109-0.583-0.061-0.797-0.099
	c-0.143,0.021-0.285,0.012-0.425-0.026c-0.048,0.007-0.097,0.014-0.145,0.018c-0.16-0.058-0.324-0.096-0.492-0.113
	c-0.138-0.054-0.365-0.24-0.531-0.252c-0.021-0.013-0.105-0.098-0.137-0.134c-0.061-0.179-0.125-0.354-0.191-0.531l0.008-0.111
	c-0.119-0.592-0.044-1.237-0.176-1.817c0.092-0.021,0.184-0.033,0.276-0.043c0.125,0.034,0.23,0.123,0.361,0.156
	c0.072-0.016,0.145-0.016,0.219,0.003c0.088-0.038,0.176-0.074,0.265-0.112c0.062,0.01,0.125,0.021,0.188,0.029
	c0.01,0.014,0.024,0.033,0.045,0.047c0.042,0.024,0.085,0.047,0.129,0.069c0.012,0.016,0.031,0.038,0.062,0.054
	c0.078,0.022,0.156,0.035,0.235,0.047c0.039,0.021,0.077,0.04,0.115,0.061c0.309,0.127,0.666-0.036,0.98,0.054
	c0.035,0.009,0.185,0.073,0.211,0.091c0.123,0.105,0.088,0.177,0.285,0.331c0.132,0.104,0.301,0.193,0.47,0.281
	c0.288,0.082,0.578,0.098,0.869,0.049c0.121,0.026,0.162,0.098,0.271,0.134c0.051,0.024,0.425,0,0.554,0.007
	c0.069-0.014,0.139-0.014,0.208-0.005c0.042-0.013,0.084-0.028,0.125-0.047l0,0c0.17-0.022,0.665-0.031,0.802-0.129
	c0.039-0.027,0.057-0.062,0.059-0.083c0.036-0.024,0.071-0.051,0.105-0.076c0.038,0.003,0.079,0.01,0.1,0.016
	c0.048,0.062,0.16,0.104,0.195,0.159c0.007,0.024,0.016,0.058,0.041,0.091c0.038,0.036,0.078,0.065,0.123,0.09h0.002L8.513,14.3
	c0.027,0.062,0.07,0.103,0.132,0.121c0.012,0.016,0.024,0.031,0.04,0.044c-0.048-0.035,0.646,0.199,0.691,0.21
	c0.108-0.007,0.215-0.018,0.323-0.033c0.225,0.139,0.475,0.21,0.749,0.217c0.042-0.012,0.083-0.022,0.122-0.036
	c0.007,0,0.016-0.002,0.021-0.002c0.004,0.011,0.008,0.02,0.009,0.02l-0.032,0.045c-0.171,0.312-0.085,0.543,0.258,0.687
	c0.058,0.029,0.116,0.056,0.176,0.08c0.03,0.003,0.054-0.006,0.085-0.011c0.028,0.014,0.082,0.031,0.148,0.016l0.015-0.009
	l0.021,0.018c0.079,0.056,0.158,0.061,0.247,0.064l0.062-0.006c0.021-0.021,0.043-0.043,0.063-0.062
	c0.123-0.003,0.24-0.016,0.357-0.041c0.04,0.003,0.079,0.01,0.117,0.022c0.121,0.029,0.225-0.038,0.292-0.117
	c0.236-0.011,0.556-0.042,0.784,0.007c0.102,0.023,0.376,0.124,0.491,0.095c0.052-0.026,0.104-0.051,0.157-0.071
	C13.762,15.647,13.597,15.654,13.496,15.728z M4.518,11.809c0.091-0.018,0.18-0.021,0.272-0.007
	c0.077-0.029,0.162-0.069,0.242-0.092c0.056,0.005,0.111,0.009,0.167,0.009c0.095-0.04,0.185-0.087,0.271-0.141
	c0.133-0.053,0.28-0.084,0.418-0.118c0.16-0.082,0.318-0.167,0.477-0.252c0.098-0.026,0.197-0.047,0.296-0.067
	c0.084-0.033,0.258,0.007,0.357,0.003c0.039,0.04,0.125,0.127,0.265,0.085c0.002,0,0.218-0.085,0.257-0.139
	c0.032-0.056,0.069-0.109,0.109-0.159c0.193-0.118,0.388-0.146,0.602-0.2c-0.116,0.145-0.05,0.145-0.087,0.292
	c-0.117,0.056-0.238,0.099-0.365,0.13c-0.037,0.016-0.061,0.04-0.091,0.066c-0.208,0.137-0.157,0.382-0.045,0.527l0.056,0.009
	c0.29,0.058,0.74-0.271,0.983-0.375c0.179-0.045,0.402-0.096,0.566-0.179c0.077-0.061,0.159-0.111,0.249-0.151
	c0.013,0.035,0.028,0.069,0.047,0.103c0.041,0.02,0.075,0.049,0.102,0.085l0.057-0.007c0.069-0.007,0.112-0.038,0.158-0.074
	c0.076,0.016,0.153,0.025,0.23,0.027c0.056,0.038,0.115,0.066,0.179,0.092c0.062,0.006,0.125,0.009,0.188,0.006
	c0.094,0.688,0.047,1.454-0.047,2.13c-0.04,0.246,0.104,0.512,0.041,0.771c-0.015,0.024-0.093,0.109-0.109,0.12l-0.026,0.016h-0.001
	c-0.058-0.024-0.116-0.049-0.174-0.075c-0.066-0.012-0.147,0.021-0.21,0.002c-0.08-0.018-0.151-0.054-0.213-0.107
	c-0.054-0.02-0.105-0.016-0.148-0.009c-0.011,0.002-0.027,0.002-0.026,0.009c-0.019-0.026-0.036-0.054-0.053-0.08l-0.097-0.083
	c-0.059-0.062-0.128-0.138-0.294-0.12l-0.047,0.004L9.016,13.92c-0.006,0.007-0.013,0.016-0.007,0.019L8.998,13.94l-0.003-0.018
	c-0.102-0.114-0.222-0.212-0.349-0.297c-0.048-0.071-0.061-0.19-0.144-0.23l-0.014-0.073c-0.049-0.04-0.092-0.087-0.13-0.141
	c-0.033-0.029-0.083-0.067-0.136-0.083c-0.049-0.018-0.098-0.02-0.146-0.007l-0.038-0.049l-0.071,0.014
	c-0.052,0.011-0.137,0.047-0.137,0.165c-0.029,0.011-0.076,0.031-0.108,0.076c-0.011,0.064-0.032,0.125-0.062,0.183
	c-0.107,0.031-0.163,0.152-0.267,0.177C7.233,13.701,6.734,13.684,6.6,13.63c-0.096-0.062-0.204-0.098-0.321-0.109
	c-0.086,0.019-0.17,0.045-0.25,0.078c-0.167,0.012-0.587,0.097-0.714,0.043c-0.23-0.097-0.211-0.161-0.373-0.279
	c-0.02-0.016-0.041-0.026-0.083-0.047c-0.04-0.045-0.082-0.087-0.125-0.13c-0.182-0.116-0.37-0.219-0.563-0.31
	c-0.07-0.036-0.718-0.027-0.562-0.061c-0.046,0.016-0.095,0.024-0.144,0.026c-0.119-0.028-0.285-0.073-0.396-0.129
	c-0.013-0.016-0.035-0.038-0.063-0.052c-0.007-0.004-0.014-0.007-0.02-0.009c-0.002-0.009-0.006-0.016-0.009-0.022
	c-0.021-0.038-0.053-0.058-0.081-0.069c-0.005-0.018-0.014-0.04-0.029-0.06c-0.103-0.15-0.119-0.01-0.115-0.281
	c0.039-0.041,0.098-0.095,0.137-0.11c0.16-0.066,0.359-0.118,0.526-0.169c0.052,0.009,0.104,0.011,0.157,0.009
	c0.25-0.054,0.496-0.052,0.739-0.132L4.518,11.809z M9.49,2.812C9.471,2.82,9.461,2.831,9.448,2.842
	C9.404,2.847,9.36,2.854,9.317,2.868C9.3,2.874,9.287,2.884,9.275,2.894L9.23,2.898L9.168,2.925C8.926,2.93,8.692,2.904,8.452,2.868
	c-0.126,0.015-0.249,0.04-0.37,0.074c-0.022,0.006-0.045,0.003-0.072,0c0.271-0.104,0.539-0.214,0.82-0.287
	c0.096-0.033,0.218-0.079,0.324-0.146c0.089-0.084,0.168-0.175,0.239-0.272l0.146-0.031l0.167-0.09
	c0.174-0.055,0.358-0.071,0.537-0.128c-0.004,0.004-0.088,0.367-0.087,0.375c0.003,0.016,0.01,0.027,0.018,0.039l-0.001,0.045
	c-0.056,0.064-0.115,0.126-0.177,0.186c-0.017,0.025-0.024,0.05-0.035,0.083C9.916,2.745,9.864,2.759,9.826,2.798
	C9.808,2.795,9.79,2.789,9.773,2.78C9.719,2.775,9.527,2.799,9.49,2.812C9.471,2.82,9.527,2.799,9.49,2.812z M11.464,2.271
	c0.092,0.058,0.231,0.085,0.288,0.095c0.048,0,0.096,0,0.145-0.001c0.044,0.018,0.088,0.036,0.133,0.054
	c0.04,0.012,0.713-0.135,0.702-0.17c0.009,0.013,0.02,0.058,0.02,0.109c-0.025,0.005-0.062,0.021-0.093,0.06
	c-0.015,0.022-0.021,0.042-0.022,0.057l-0.028,0.025c-0.023,0.054-0.048,0.107-0.075,0.159c-0.003,0.003-0.006,0.005-0.01,0.008
	c-0.258,0.032-0.725,0.175-0.973,0.133c-0.094-0.036-0.188-0.072-0.281-0.109c-0.062-0.006-0.122-0.013-0.185-0.02
	c-0.041,0.036-0.082,0.072-0.124,0.106c-0.046-0.012-0.094-0.02-0.142-0.022c0-0.089-0.037-0.176,0.006-0.263
	c0.022-0.054,0.061-0.134,0.036-0.233c-0.021-0.092-0.111-0.219-0.174-0.306c-0.069-0.016-0.15-0.03-0.219-0.021
	c0.044-0.011,0.089-0.024,0.13-0.047c0.135,0.004,0.539-0.032,0.597,0.08C11.281,2.069,11.37,2.171,11.464,2.271
	C11.555,2.328,11.376,2.216,11.464,2.271z M12.468,10.826c-0.095-0.001-0.188,0.005-0.282,0.019c-0.03-0.017-0.06-0.034-0.089-0.052
	c-0.043-0.019-0.087-0.024-0.133-0.022c-0.047-0.021-0.097-0.038-0.147-0.052c-0.141,0.007-0.277,0.029-0.414,0.062
	c-0.112-0.016-0.234,0.031-0.345,0.014c-0.01-0.05-0.012-0.086,0.007-0.101l0.04-0.038c-0.007-0.096-0.042-0.183-0.065-0.274
	l0.026-0.194c0.017-0.018,0.042-0.042,0.053-0.078c0.016-0.041,0.019-0.079,0.018-0.116c0.039,0.014,0.079,0.025,0.121,0.035
	c0.07,0.093,0.223,0.188,0.308,0.222c0.043,0.016,0.1,0.039,0.197,0.021c0.042,0.022,0.084,0.045,0.125,0.068l0.076,0.012
	c0.014,0.016,0.033,0.031,0.066,0.046c0.034,0.011,0.061,0.005,0.091-0.001l0.129,0.035c0.07,0.03,0.089,0.062,0.175,0.086
	c0.015,0.021,0.034,0.041,0.054,0.058l0.035,0.007c0.072,0.096,0.136,0.144,0.229,0.214C12.649,10.806,12.557,10.817,12.468,10.826z
	 M12.775,15.015c0.044-0.031,0.07-0.045,0.069-0.047c0.063,0.024,0.129,0.051,0.203,0.078c0.107-0.034,0.194-0.021,0.265,0.04
	c-0.012,0.022-0.019,0.044-0.021,0.069c-0.082-0.027-0.16-0.061-0.244-0.085l-0.242,0.016c-0.039-0.009-0.078-0.019-0.117-0.029
	C12.726,15.048,12.76,15.025,12.775,15.015z M11.83,14.727l0.031-0.012c0.021,0,0.046-0.002,0.077-0.009l0.024-0.018
	c0.021,0.007,0.079,0.033,0.116,0.054l0.005,0.016c0.029,0.069,0.097,0.16,0.16,0.2c0.032,0.021,0.099,0.041,0.198,0.059
	c0.039-0.005,0.079-0.007,0.118-0.007c0.009,0.007,0.022,0.021,0.042,0.031c0.005,0,0.006,0.002,0.008,0.002
	c-0.197-0.009-0.517-0.009-0.648,0.149c0.034-0.053-0.584-0.028-0.646-0.042c-0.036-0.026-0.07-0.056-0.1-0.087h-0.049
	c-0.059,0-0.104,0.014-0.143,0.04c-0.016-0.014-0.031-0.029-0.046-0.04c0.026-0.071,0.061-0.139,0.104-0.199
	c0.02-0.047,0.014-0.089,0.003-0.127c0.11-0.035,0.221-0.073,0.333-0.109c0.06,0.043,0.112,0.094,0.159,0.154
	C11.694,14.82,11.782,14.76,11.83,14.727z M10.466,8.524l-0.024-0.02c-0.046-0.114-0.024-0.176-0.148-0.266
	c0.042-0.028,0.076-0.064,0.106-0.106c0.009-0.015,0.018-0.029,0.019-0.045c0.019-0.01,0.035-0.02,0.054-0.028
	C10.441,8.212,10.438,8.368,10.466,8.524z M11.183,9.176c0.004,0.004,0.006,0.008,0.008,0.012c-0.024-0.016-0.047-0.033-0.067-0.053
	c-0.039-0.05-0.068-0.159-0.05-0.252c0.014-0.098,0.026-0.197,0.036-0.297c0.062,0.053,0.116,0.112,0.166,0.176
	c0,0.002,0.001,0.004,0.003,0.007c-0.006,0.009-0.016,0.021-0.026,0.035C11.197,8.871,11.072,9.028,11.183,9.176
	C11.187,9.18,11.072,9.028,11.183,9.176z M4.974,4.667c-0.003,0-0.007,0-0.01,0l-0.042-0.05L4.89,4.606
	C4.839,4.587,4.792,4.602,4.758,4.612C4.746,4.615,4.731,4.62,4.731,4.621C4.632,4.597,4.527,4.554,4.473,4.515
	C4.442,4.441,4.402,4.372,4.354,4.307C4.279,4.259,4.199,4.218,4.118,4.182C4.093,4.129,4.06,4.041,4.052,4.019
	c0.016-0.103-0.003-0.194-0.053-0.284c0.096-0.109,0.207-0.196,0.333-0.261c0.016,0.031,0.042,0.068,0.089,0.093
	c0.126,0.066,0.183,0.101,0.309,0.077c0.091,0.034,0.179,0.09,0.269,0.126l0.296-0.016c0.09,0.044,0.185,0.067,0.282,0.09
	C5.689,3.823,5.8,3.82,5.912,3.837c0.036-0.013,0.074-0.021,0.112-0.025c0.025,0.02,0.052,0.04,0.077,0.061
	C6.13,3.889,6.159,3.9,6.186,3.909c0.008,0.043-0.089,0.318-0.129,0.356C6.003,4.283,5.951,4.304,5.9,4.327
	C5.863,4.352,5.844,4.384,5.832,4.411C5.783,4.422,5.737,4.438,5.692,4.462C5.664,4.48,5.644,4.505,5.612,4.543
	C5.569,4.574,5.497,4.612,5.428,4.641C5.381,4.66,5.136,4.717,5.096,4.704c-0.015-0.009-0.035-0.021-0.06-0.028
	C5.011,4.669,4.991,4.667,4.974,4.667z M4.272,5c-0.016-0.013-0.039-0.031-0.07-0.04C4.165,4.954,4.128,4.954,4.09,4.96
	C4.026,4.945,3.98,4.915,3.942,4.864C3.907,4.815,3.877,4.75,3.868,4.686C4,4.837,4.225,4.928,4.394,5.027
	C4.35,5.019,4.301,5.011,4.272,5C4.256,4.987,4.301,5.011,4.272,5z M6.467,3.092C6.424,3.051,6.376,3.023,6.322,3.009
	C6.317,2.984,6.309,2.951,6.283,2.917C6.281,2.915,6.279,2.912,6.278,2.909C6.618,2.944,6.962,2.96,7.303,2.993
	c-0.229,0.07-0.504,0.231-0.726,0.266C6.56,3.25,6.546,3.236,6.534,3.219C6.513,3.176,6.491,3.133,6.467,3.092
	C6.427,3.042,6.49,3.124,6.467,3.092z"/>
</svg>
