<?xml version="1.0" encoding="utf-8"?>
<!-- Generator: Adobe Illustrator 16.0.4, SVG Export Plug-In . SVG Version: 6.00 Build 0)  -->
<!DOCTYPE svg PUBLIC "-//W3C//DTD SVG 1.1//EN" "http://www.w3.org/Graphics/SVG/1.1/DTD/svg11.dtd">
<svg version="1.1" id="Layer_1" xmlns="http://www.w3.org/2000/svg" xmlns:xlink="http://www.w3.org/1999/xlink" x="0px" y="0px"
	 width="512px" height="512px" viewBox="0 0 512 512" enable-background="new 0 0 512 512" xml:space="preserve">
<path d="M0,480c0,17.674,14.327,32,32,32h448c17.674,0,32-14.326,32-32V192H0V480z M352,224h128v64H352V224z M352,320h128v64H352
	V320z M352,416h128v64H352V416z M192,224h128v64H192V224z M192,320h128v64H192V320z M192,416h128v64H192V416z M32,224h128v64H32V224
	z M32,320h128v64H32V320z M32,416h128v64H32V416z M480,64h-64V18.286C416,8.187,408.837,0,400,0c-8.836,0-16,8.187-16,18.286V64H128
	V18.286C128,8.187,120.837,0,112,0S96,8.187,96,18.286V64H32C14.327,64,0,78.327,0,96v64h512V96C512,78.327,497.673,64,480,64z
	 M112,144c-17.673,0-32-14.327-32-32c0-11.842,6.438-22.174,16-27.708V112c0,8.836,7.164,16,16,16s16-7.164,16-16V84.292
	c9.562,5.534,16,15.866,16,27.708C144,129.673,129.673,144,112,144z M400,144c-17.672,0-32-14.327-32-32
	c0-11.842,6.438-22.174,16-27.708V112c0,8.836,7.164,16,16,16c8.837,0,16-7.164,16-16V84.292c9.562,5.534,16,15.866,16,27.708
	C432,129.673,417.674,144,400,144z"/>
</svg>
