<?xml version="1.0" encoding="utf-8"?>
<!-- Generator: Adobe Illustrator 16.0.4, SVG Export Plug-In . SVG Version: 6.00 Build 0)  -->
<!DOCTYPE svg PUBLIC "-//W3C//DTD SVG 1.1//EN" "http://www.w3.org/Graphics/SVG/1.1/DTD/svg11.dtd">
<svg version="1.1" id="Layer_1" xmlns="http://www.w3.org/2000/svg" xmlns:xlink="http://www.w3.org/1999/xlink" x="0px" y="0px"
	 width="60.9px" height="63.7px" viewBox="0 0 60.9 63.7" enable-background="new 0 0 60.9 63.7" xml:space="preserve">
<g>
	<path fill="#64933A" d="M12.3,36.1c0,2.6,0.6,5.1,1.7,7.2s2.7,4,4.5,5.6c1.9,1.5,4.1,2.7,6.5,3.6c2.5,0.9,5,1.3,7.7,1.3
		c3.6,0,6.7-0.8,9.3-2.5c2.6-1.7,5.1-3.9,7.3-6.6l8.7,6.7c-6.4,8.3-15.4,12.4-26.9,12.4c-4.8,0-9.1-0.8-13-2.4
		c-3.9-1.6-7.2-3.9-9.9-6.7c-2.7-2.9-4.8-6.2-6.2-10.1C0.7,40.6,0,36.4,0,31.9c0-4.5,0.8-8.7,2.4-12.6C3.9,15.4,6.1,12,8.9,9.2
		c2.8-2.9,6.1-5.1,9.9-6.7c3.8-1.6,8-2.4,12.5-2.4c5.4,0,9.9,0.9,13.6,2.8c3.7,1.9,6.8,4.3,9.2,7.4c2.4,3,4.1,6.4,5.2,10.2
		c1.1,3.8,1.6,7.7,1.6,11.6v4.1H12.3z M48.6,26.9c-0.1-2.6-0.5-4.9-1.2-7c-0.7-2.1-1.8-4-3.3-5.6c-1.5-1.6-3.3-2.8-5.4-3.7
		S34,9.2,31.1,9.2c-2.8,0-5.4,0.5-7.7,1.6c-2.3,1.1-4.3,2.5-6,4.2c-1.6,1.7-2.9,3.6-3.8,5.7c-0.9,2.1-1.3,4.2-1.3,6.2H48.6z"/>
</g>
</svg>
