<svg>
	
	<symbol viewBox="0 0 512 512" id="icon-calendar">
		<title>calendar</title>
		<path d="M0,480c0,17.674,14.327,32,32,32h448c17.674,0,32-14.326,32-32V192H0V480z M352,224h128v64H352V224z M352,320h128v64H352
			V320z M352,416h128v64H352V416z M192,224h128v64H192V224z M192,320h128v64H192V320z M192,416h128v64H192V416z M32,224h128v64H32V224
			z M32,320h128v64H32V320z M32,416h128v64H32V416z M480,64h-64V18.286C416,8.187,408.837,0,400,0c-8.836,0-16,8.187-16,18.286V64H128
			V18.286C128,8.187,120.837,0,112,0S96,8.187,96,18.286V64H32C14.327,64,0,78.327,0,96v64h512V96C512,78.327,497.673,64,480,64z
			 M112,144c-17.673,0-32-14.327-32-32c0-11.842,6.438-22.174,16-27.708V112c0,8.836,7.164,16,16,16s16-7.164,16-16V84.292
			c9.562,5.534,16,15.866,16,27.708C144,129.673,129.673,144,112,144z M400,144c-17.672,0-32-14.327-32-32
			c0-11.842,6.438-22.174,16-27.708V112c0,8.836,7.164,16,16,16c8.837,0,16-7.164,16-16V84.292c9.562,5.534,16,15.866,16,27.708
			C432,129.673,417.674,144,400,144z"/>
	</symbol>
	<symbol viewBox="0 0 512 512" id="icon-direction">
		<title>direction</title>
		<path d="M400,192l96-64l-96-64H288V24c0-13.2-10.8-24-24-24h-16c-13.2,0-24,10.8-24,24v40H64v128h160v32H80l-64,48l64,48h144v192h64
			V320h128v-96H288v-32H400z"/>
	</symbol>
	<symbol viewBox="0 0 512 512" id="icon-shield3">
		<title>shield3</title>
		<path d="M480,0L256,64L32,0c0,0-2.25,25.849,0,64l224,70.045L480,64C482.249,25.849,480,0,480,0z M36.095,97.553
			C48.088,222.901,92.84,433.67,256,512c163.16-78.33,207.912-289.099,219.905-414.447L256,180.232L36.095,97.553z"/>
	</symbol>
</svg>